# xmcd CD database file
# Copyright (C) 1993-1998 Ti Kan
# 
# Track frame offsets:
#     150
#     16050
#     33175
#     51945
#     71025
#     88492
#     104067
#     117742
#     132340
#     157162
#     175135
#     199605
# 
# Disc length: 2918 seconds
# 
# Revision: 1
# Processed by: cddbd v1.4b41PL1 Copyright (c) Steve Scherf et al.
# Submitted via: DiscPlay 4.0.4
# 
DISCID=b00b640c
DTITLE=Chris Knight - Chris Knight
DYEAR=1900
DGENRE=
TTITLE0=It Ain't Easy Being Me
TTITLE1=Framed
TTITLE2=Bring The Harvest Home
TTITLE3=Something Changed
TTITLE4=House And 90 Acres
TTITLE5=Summer of '75
TTITLE6=Run From Your Memory
TTITLE7=Love And A .45
TTITLE8=The Hammer Going Down
TTITLE9=The Band Is Playing Too Slow
TTITLE10=The River's Own
TTITLE11=William
EXTD=
EXTT0=
EXTT1=
EXTT2=
EXTT3=
EXTT4=
EXTT5=
EXTT6=
EXTT7=
EXTT8=
EXTT9=
EXTT10=
EXTT11=
PLAYORDER=
